<svg xmlns="http://www.w3.org/2000/svg" xmlns:xlink="http://www.w3.org/1999/xlink" width="500" zoomAndPan="magnify" viewBox="0 0 375 374.999991" height="500" preserveAspectRatio="xMidYMid meet" version="1.0"><defs><g/><clipPath id="33c90a8c5f"><path d="M 149 121 L 180.488281 121 L 180.488281 187.605469 L 149 187.605469 Z M 149 121 " clip-rule="nonzero"/></clipPath><clipPath id="0b4b3bee1b"><path d="M 168.480469 182.851562 L 211.4375 182.851562 L 211.4375 187.5 L 168.480469 187.5 Z M 168.480469 182.851562 " clip-rule="nonzero"/></clipPath><clipPath id="67da1253aa"><path d="M 194.34375 121 L 226 121 L 226 187.605469 L 194.34375 187.605469 Z M 194.34375 121 " clip-rule="nonzero"/></clipPath></defs><rect x="-37.5" width="450" fill="#ffffff" y="-37.499999" height="449.999989" fill-opacity="1"/><rect x="-37.5" width="450" fill="#ffffff" y="-37.499999" height="449.999989" fill-opacity="1"/><g clip-path="url(#33c90a8c5f)"><path fill="#435dbe" d="M 180.847656 121.585938 C 180.601562 121.847656 180.183594 122.289062 179.917969 122.566406 C 179.65625 122.84375 179.414062 123.121094 179.386719 123.1875 C 179.324219 123.332031 179.347656 123.851562 179.441406 124.359375 C 179.539062 124.878906 179.558594 125.066406 179.519531 125.066406 C 179.496094 125.066406 179.402344 125.015625 179.308594 124.953125 C 178.496094 124.398438 177.628906 124.324219 177.238281 124.773438 C 177.070312 124.960938 177.007812 125.183594 177.007812 125.574219 C 177.007812 126.078125 177.214844 126.617188 177.648438 127.210938 C 177.773438 127.378906 177.871094 127.542969 177.871094 127.566406 C 177.871094 127.652344 177.679688 127.9375 177.628906 127.9375 C 177.597656 127.9375 177.335938 127.574219 177.042969 127.128906 C 176.296875 125.996094 176.121094 125.804688 175.972656 125.988281 C 175.847656 126.152344 175.578125 127.046875 175.324219 128.167969 C 175.144531 128.933594 175.050781 129.175781 174.878906 129.277344 C 174.839844 129.296875 174.628906 129.484375 174.398438 129.6875 C 173.796875 130.222656 173.65625 130.308594 173.382812 130.308594 C 173.253906 130.308594 173.117188 130.339844 173.058594 130.382812 C 172.933594 130.46875 172.941406 130.476562 172.683594 130.089844 C 172.339844 129.574219 171.929688 129.382812 171.53125 129.550781 C 171.402344 129.601562 171.335938 129.671875 171.273438 129.820312 C 171.066406 130.289062 171.117188 130.773438 171.464844 131.5625 C 171.941406 132.648438 171.976562 132.792969 172.046875 133.757812 C 172.09375 134.425781 172.121094 134.535156 172.480469 135.300781 C 172.5625 135.472656 172.683594 135.800781 172.757812 136.019531 C 172.957031 136.636719 173.183594 136.816406 173.78125 136.824219 C 173.945312 136.828125 174.09375 136.839844 174.109375 136.855469 C 174.121094 136.871094 173.988281 137.164062 173.8125 137.507812 C 173.445312 138.203125 173.101562 138.890625 172.96875 139.199219 C 172.921875 139.3125 172.84375 139.488281 172.796875 139.59375 C 172.753906 139.699219 172.703125 139.78125 172.683594 139.765625 C 172.664062 139.757812 172.628906 139.597656 172.59375 139.417969 C 172.46875 138.71875 172.230469 138.246094 171.714844 137.707031 C 171.378906 137.355469 171.304688 137.261719 171.285156 137.105469 C 171.265625 136.953125 171.28125 136.90625 171.378906 136.808594 C 171.476562 136.707031 171.535156 136.691406 171.761719 136.691406 C 171.90625 136.691406 172.09375 136.707031 172.175781 136.730469 C 172.285156 136.761719 172.332031 136.757812 172.386719 136.707031 C 172.492188 136.597656 172.410156 136.503906 172.039062 136.292969 C 171.117188 135.773438 170.128906 136.011719 169.703125 136.855469 C 169.597656 137.058594 169.582031 137.140625 169.601562 137.320312 C 169.617188 137.4375 169.644531 137.570312 169.65625 137.609375 C 169.679688 137.671875 169.644531 137.710938 169.503906 137.78125 C 169.273438 137.898438 169.226562 137.988281 169.226562 138.277344 C 169.226562 138.589844 169.378906 138.863281 169.625 138.988281 C 169.847656 139.097656 169.851562 139.132812 169.679688 139.675781 C 169.589844 139.964844 169.582031 140.085938 169.582031 140.910156 C 169.585938 142.132812 169.707031 142.886719 170.054688 143.777344 C 170.246094 144.261719 170.484375 144.617188 170.917969 145.035156 L 171.273438 145.386719 L 171.273438 146.0625 C 171.273438 146.4375 171.285156 146.851562 171.300781 146.976562 C 171.328125 147.195312 171.324219 147.21875 171.242188 147.21875 C 171.191406 147.21875 171.105469 147.164062 171.039062 147.101562 C 170.800781 146.835938 170.148438 146.484375 169.476562 146.261719 C 169.101562 146.136719 169.085938 146.121094 169.042969 145.894531 C 168.992188 145.621094 169.050781 145.519531 169.238281 145.5625 C 169.527344 145.621094 169.796875 145.730469 169.996094 145.863281 C 170.203125 146.003906 170.375 146.015625 170.398438 145.894531 C 170.417969 145.792969 169.988281 145.167969 169.714844 144.898438 C 169.597656 144.78125 169.378906 144.621094 169.234375 144.546875 C 168.996094 144.429688 168.933594 144.417969 168.519531 144.417969 C 167.996094 144.417969 167.808594 144.488281 167.492188 144.808594 C 167.257812 145.039062 167.140625 145.316406 167.0625 145.800781 C 167.027344 146.011719 166.992188 146.191406 166.980469 146.203125 C 166.96875 146.210938 166.859375 146.289062 166.730469 146.367188 C 166.609375 146.449219 166.425781 146.613281 166.335938 146.742188 C 165.734375 147.53125 165.726562 148.320312 166.304688 148.703125 L 166.511719 148.839844 L 166.5 149.613281 C 166.472656 151.441406 166.824219 152.554688 167.832031 153.875 C 168.230469 154.390625 168.371094 154.558594 168.882812 155.09375 C 169.160156 155.378906 169.398438 155.644531 169.421875 155.675781 C 169.445312 155.714844 169.347656 155.816406 169.105469 156.003906 C 168.441406 156.519531 168.488281 156.460938 168.488281 156.816406 C 168.492188 157.292969 168.539062 158.164062 168.617188 159.21875 C 168.65625 159.738281 168.675781 160.214844 168.660156 160.277344 C 168.636719 160.359375 168.601562 160.394531 168.519531 160.394531 C 168.460938 160.394531 168.398438 160.371094 168.378906 160.339844 C 168.359375 160.3125 168.335938 160 168.328125 159.648438 C 168.316406 159.015625 168.265625 158.734375 168.109375 158.429688 C 168.066406 158.34375 167.726562 157.976562 167.359375 157.613281 C 166.695312 156.960938 166.53125 156.738281 166.472656 156.417969 C 166.429688 156.203125 166.539062 155.988281 166.746094 155.894531 C 166.890625 155.824219 166.910156 155.824219 167.144531 155.921875 C 167.28125 155.976562 167.449219 156.085938 167.523438 156.160156 C 167.664062 156.308594 167.734375 156.324219 167.816406 156.222656 C 167.863281 156.164062 167.851562 156.085938 167.746094 155.777344 C 167.527344 155.132812 167.246094 154.535156 167.035156 154.265625 C 166.773438 153.929688 166.472656 153.730469 165.949219 153.546875 C 165.355469 153.347656 164.910156 153.339844 164.523438 153.53125 C 164.375 153.605469 164.164062 153.746094 164.050781 153.847656 C 163.851562 154.023438 163.355469 154.726562 163.132812 155.152344 C 163.074219 155.265625 162.929688 155.496094 162.8125 155.675781 C 162.589844 156.011719 162.621094 155.996094 161.96875 156.199219 C 161.375 156.390625 161.136719 156.546875 160.984375 156.851562 C 160.832031 157.144531 160.855469 157.382812 161.070312 157.734375 C 161.214844 157.972656 161.246094 158.058594 161.210938 158.125 C 161.1875 158.167969 161.132812 158.207031 161.09375 158.207031 C 160.960938 158.207031 160.722656 158.386719 160.652344 158.542969 C 160.550781 158.757812 160.5625 158.992188 160.691406 159.367188 C 160.832031 159.773438 160.832031 159.882812 160.683594 160.203125 C 160.589844 160.40625 160.566406 160.53125 160.566406 160.78125 C 160.566406 161.152344 160.648438 161.394531 160.949219 161.898438 C 161.390625 162.636719 161.558594 163.191406 161.714844 164.472656 C 161.835938 165.40625 161.976562 166.175781 162.195312 167.070312 C 162.308594 167.535156 162.34375 167.757812 162.3125 167.792969 C 162.28125 167.824219 162.167969 167.808594 161.957031 167.746094 C 161.519531 167.609375 161.421875 167.589844 161.097656 167.589844 C 160.46875 167.589844 160.167969 167.96875 160.304688 168.613281 C 160.351562 168.84375 160.542969 169.167969 160.929688 169.683594 L 161.035156 169.820312 L 160.851562 170.042969 C 160.746094 170.175781 160.652344 170.355469 160.621094 170.492188 C 160.59375 170.617188 160.550781 170.734375 160.527344 170.757812 C 160.472656 170.820312 159.9375 170.542969 159.746094 170.347656 C 159.4375 170.042969 159.441406 169.96875 159.757812 169.886719 C 159.945312 169.835938 159.992188 169.707031 159.859375 169.585938 C 159.71875 169.460938 159.257812 169.316406 158.964844 169.3125 C 158.445312 169.300781 158.046875 169.609375 157.945312 170.109375 C 157.84375 170.558594 158 171.089844 158.417969 171.761719 C 158.671875 172.171875 158.726562 172.46875 158.609375 172.757812 C 158.542969 172.90625 158.515625 172.929688 158.386719 172.929688 C 158.203125 172.929688 157.902344 172.792969 157.789062 172.664062 C 157.710938 172.582031 157.710938 172.539062 157.761719 172.203125 C 157.808594 171.90625 157.808594 171.824219 157.757812 171.769531 C 157.617188 171.597656 157.066406 171.757812 156.792969 172.046875 C 156.511719 172.34375 156.316406 173.054688 156.371094 173.5625 C 156.386719 173.703125 156.453125 174.0625 156.515625 174.363281 C 156.605469 174.777344 156.632812 175.050781 156.636719 175.503906 C 156.640625 176.214844 156.566406 176.460938 156.214844 176.863281 C 156.09375 177.003906 155.964844 177.195312 155.9375 177.289062 C 155.90625 177.386719 155.863281 177.480469 155.851562 177.507812 C 155.832031 177.53125 155.757812 177.710938 155.691406 177.898438 C 155.625 178.082031 155.527344 178.328125 155.480469 178.445312 C 155.371094 178.699219 154.855469 180.070312 154.609375 180.746094 C 154.507812 181.019531 154.394531 181.328125 154.359375 181.429688 C 154.261719 181.683594 154.21875 181.730469 154.074219 181.695312 C 153.902344 181.652344 153.511719 181.394531 153.394531 181.242188 C 153.179688 180.972656 153.09375 180.582031 153.214844 180.457031 C 153.246094 180.425781 153.335938 180.402344 153.414062 180.402344 C 153.621094 180.402344 153.707031 180.363281 153.707031 180.261719 C 153.707031 180.132812 153.542969 180.058594 153.152344 179.992188 C 152.742188 179.925781 152.453125 179.960938 152.160156 180.105469 C 151.90625 180.234375 151.828125 180.320312 151.695312 180.609375 C 151.496094 181.058594 151.585938 181.707031 151.910156 182.164062 C 151.996094 182.285156 152.070312 182.398438 152.070312 182.417969 C 152.070312 182.527344 151.90625 182.410156 151.554688 182.050781 C 151.226562 181.714844 151.160156 181.621094 151.160156 181.503906 C 151.160156 181.425781 151.179688 181.324219 151.207031 181.277344 C 151.25 181.210938 151.246094 181.167969 151.1875 181.074219 C 151.03125 180.839844 150.597656 180.804688 150.285156 180.996094 C 150.109375 181.105469 149.898438 181.410156 149.855469 181.621094 C 149.785156 182 149.972656 182.570312 150.25 182.824219 C 150.386719 182.953125 150.378906 183 150.242188 183 C 150.097656 183 149.925781 183.105469 149.855469 183.234375 C 149.769531 183.402344 149.777344 183.871094 149.867188 184.085938 C 149.90625 184.191406 150.179688 184.496094 150.585938 184.894531 C 151.269531 185.558594 151.570312 185.921875 151.757812 186.304688 C 151.878906 186.539062 152.132812 187.253906 152.183594 187.476562 L 152.207031 187.605469 L 181.011719 187.605469 L 181.007812 187.433594 C 181.003906 187.339844 181.023438 185.195312 181.050781 182.660156 C 181.105469 177.617188 181.175781 169.117188 181.238281 159.777344 C 181.285156 153.414062 181.347656 145.335938 181.421875 136.417969 C 181.449219 133.445312 181.480469 128.890625 181.492188 126.296875 C 181.507812 123.703125 181.535156 121.515625 181.558594 121.441406 C 181.601562 121.246094 181.539062 121.101562 181.40625 121.101562 C 181.332031 121.101562 181.175781 121.234375 180.847656 121.585938 Z M 180.847656 121.585938 " fill-opacity="1" fill-rule="nonzero"/></g><g clip-path="url(#0b4b3bee1b)"><path fill="#435dbe" d="M 168.480469 182.851562 L 211.078125 182.851562 L 211.078125 187.21875 L 168.480469 187.21875 Z M 168.480469 182.851562 " fill-opacity="1" fill-rule="nonzero"/></g><g clip-path="url(#67da1253aa)"><path fill="#435dbe" d="M 194.144531 121.585938 C 194.390625 121.847656 194.8125 122.289062 195.074219 122.566406 C 195.339844 122.84375 195.578125 123.121094 195.605469 123.1875 C 195.671875 123.332031 195.648438 123.851562 195.550781 124.359375 C 195.457031 124.878906 195.433594 125.066406 195.476562 125.066406 C 195.496094 125.066406 195.59375 125.015625 195.683594 124.953125 C 196.5 124.398438 197.363281 124.324219 197.753906 124.773438 C 197.921875 124.960938 197.988281 125.183594 197.988281 125.574219 C 197.988281 126.078125 197.777344 126.617188 197.34375 127.210938 C 197.222656 127.378906 197.121094 127.542969 197.121094 127.566406 C 197.121094 127.652344 197.3125 127.9375 197.363281 127.9375 C 197.394531 127.9375 197.660156 127.574219 197.949219 127.128906 C 198.695312 125.996094 198.875 125.804688 199.019531 125.988281 C 199.148438 126.152344 199.417969 127.046875 199.671875 128.167969 C 199.847656 128.933594 199.945312 129.175781 200.117188 129.277344 C 200.152344 129.296875 200.367188 129.484375 200.59375 129.6875 C 201.195312 130.222656 201.335938 130.308594 201.609375 130.308594 C 201.742188 130.308594 201.878906 130.339844 201.9375 130.382812 C 202.058594 130.46875 202.050781 130.476562 202.308594 130.089844 C 202.65625 129.574219 203.066406 129.382812 203.460938 129.550781 C 203.59375 129.601562 203.65625 129.671875 203.722656 129.820312 C 203.925781 130.289062 203.875 130.773438 203.53125 131.5625 C 203.050781 132.648438 203.015625 132.792969 202.949219 133.757812 C 202.902344 134.425781 202.875 134.535156 202.515625 135.300781 C 202.433594 135.472656 202.308594 135.800781 202.238281 136.019531 C 202.039062 136.636719 201.808594 136.816406 201.214844 136.824219 C 201.050781 136.828125 200.898438 136.839844 200.886719 136.855469 C 200.871094 136.871094 201.003906 137.164062 201.183594 137.507812 C 201.550781 138.203125 201.890625 138.890625 202.023438 139.199219 C 202.074219 139.3125 202.152344 139.488281 202.195312 139.59375 C 202.242188 139.699219 202.292969 139.78125 202.308594 139.765625 C 202.328125 139.757812 202.363281 139.597656 202.402344 139.417969 C 202.523438 138.71875 202.765625 138.246094 203.28125 137.707031 C 203.617188 137.355469 203.6875 137.261719 203.707031 137.105469 C 203.730469 136.953125 203.710938 136.90625 203.617188 136.808594 C 203.515625 136.707031 203.457031 136.691406 203.234375 136.691406 C 203.089844 136.691406 202.902344 136.707031 202.820312 136.730469 C 202.710938 136.761719 202.660156 136.757812 202.605469 136.707031 C 202.5 136.597656 202.582031 136.503906 202.957031 136.292969 C 203.875 135.773438 204.863281 136.011719 205.292969 136.855469 C 205.394531 137.058594 205.414062 137.140625 205.390625 137.320312 C 205.378906 137.4375 205.351562 137.570312 205.335938 137.609375 C 205.3125 137.671875 205.351562 137.710938 205.492188 137.78125 C 205.71875 137.898438 205.769531 137.988281 205.769531 138.277344 C 205.769531 138.589844 205.613281 138.863281 205.367188 138.988281 C 205.144531 139.097656 205.140625 139.132812 205.3125 139.675781 C 205.40625 139.964844 205.414062 140.085938 205.414062 140.910156 C 205.410156 142.132812 205.285156 142.886719 204.941406 143.777344 C 204.75 144.261719 204.507812 144.617188 204.074219 145.035156 L 203.722656 145.386719 L 203.722656 146.0625 C 203.722656 146.4375 203.707031 146.851562 203.695312 146.976562 C 203.667969 147.195312 203.671875 147.21875 203.753906 147.21875 C 203.804688 147.21875 203.890625 147.164062 203.953125 147.101562 C 204.195312 146.835938 204.84375 146.484375 205.519531 146.261719 C 205.890625 146.136719 205.910156 146.121094 205.949219 145.894531 C 206 145.621094 205.941406 145.519531 205.753906 145.5625 C 205.46875 145.621094 205.195312 145.730469 205 145.863281 C 204.789062 146.003906 204.617188 146.015625 204.59375 145.894531 C 204.578125 145.792969 205.003906 145.167969 205.277344 144.898438 C 205.394531 144.78125 205.613281 144.621094 205.761719 144.546875 C 205.996094 144.429688 206.058594 144.417969 206.472656 144.417969 C 206.996094 144.417969 207.183594 144.488281 207.503906 144.808594 C 207.734375 145.039062 207.851562 145.316406 207.929688 145.800781 C 207.96875 146.011719 208.003906 146.191406 208.011719 146.203125 C 208.027344 146.210938 208.136719 146.289062 208.261719 146.367188 C 208.386719 146.449219 208.566406 146.613281 208.660156 146.742188 C 209.257812 147.53125 209.269531 148.320312 208.691406 148.703125 L 208.480469 148.839844 L 208.496094 149.613281 C 208.523438 151.441406 208.171875 152.554688 207.160156 153.875 C 206.765625 154.390625 206.625 154.558594 206.109375 155.09375 C 205.832031 155.378906 205.597656 155.644531 205.574219 155.675781 C 205.550781 155.714844 205.644531 155.816406 205.886719 156.003906 C 206.550781 156.519531 206.507812 156.460938 206.507812 156.816406 C 206.5 157.292969 206.457031 158.164062 206.378906 159.21875 C 206.335938 159.738281 206.320312 160.214844 206.332031 160.277344 C 206.355469 160.359375 206.390625 160.394531 206.472656 160.394531 C 206.535156 160.394531 206.597656 160.371094 206.617188 160.339844 C 206.632812 160.3125 206.65625 160 206.664062 159.648438 C 206.679688 159.015625 206.730469 158.734375 206.882812 158.429688 C 206.929688 158.34375 207.265625 157.976562 207.636719 157.613281 C 208.300781 156.960938 208.464844 156.738281 208.523438 156.417969 C 208.5625 156.203125 208.453125 155.988281 208.25 155.894531 C 208.105469 155.824219 208.085938 155.824219 207.847656 155.921875 C 207.710938 155.976562 207.542969 156.085938 207.472656 156.160156 C 207.328125 156.308594 207.261719 156.324219 207.179688 156.222656 C 207.128906 156.164062 207.144531 156.085938 207.246094 155.777344 C 207.464844 155.132812 207.75 154.535156 207.957031 154.265625 C 208.222656 153.929688 208.523438 153.730469 209.046875 153.546875 C 209.636719 153.347656 210.082031 153.339844 210.46875 153.53125 C 210.621094 153.605469 210.828125 153.746094 210.941406 153.847656 C 211.144531 154.023438 211.640625 154.726562 211.863281 155.152344 C 211.921875 155.265625 212.0625 155.496094 212.179688 155.675781 C 212.402344 156.011719 212.371094 155.996094 213.027344 156.199219 C 213.617188 156.390625 213.855469 156.546875 214.011719 156.851562 C 214.160156 157.144531 214.136719 157.382812 213.925781 157.734375 C 213.777344 157.972656 213.746094 158.058594 213.78125 158.125 C 213.804688 158.167969 213.859375 158.207031 213.902344 158.207031 C 214.03125 158.207031 214.269531 158.386719 214.34375 158.542969 C 214.441406 158.757812 214.433594 158.992188 214.300781 159.367188 C 214.160156 159.773438 214.160156 159.882812 214.3125 160.203125 C 214.40625 160.40625 214.429688 160.53125 214.429688 160.78125 C 214.429688 161.152344 214.347656 161.394531 214.046875 161.898438 C 213.605469 162.636719 213.4375 163.191406 213.277344 164.472656 C 213.160156 165.40625 213.019531 166.175781 212.800781 167.070312 C 212.6875 167.535156 212.648438 167.757812 212.679688 167.792969 C 212.714844 167.824219 212.828125 167.808594 213.035156 167.746094 C 213.472656 167.609375 213.574219 167.589844 213.898438 167.589844 C 214.523438 167.589844 214.824219 167.96875 214.6875 168.613281 C 214.644531 168.84375 214.453125 169.167969 214.066406 169.683594 L 213.960938 169.820312 L 214.140625 170.042969 C 214.246094 170.175781 214.34375 170.355469 214.375 170.492188 C 214.402344 170.617188 214.441406 170.734375 214.464844 170.757812 C 214.519531 170.820312 215.058594 170.542969 215.25 170.347656 C 215.558594 170.042969 215.554688 169.96875 215.234375 169.886719 C 215.046875 169.835938 215.003906 169.707031 215.132812 169.585938 C 215.277344 169.460938 215.734375 169.316406 216.03125 169.3125 C 216.550781 169.300781 216.945312 169.609375 217.050781 170.109375 C 217.152344 170.558594 216.996094 171.089844 216.578125 171.761719 C 216.320312 172.171875 216.265625 172.46875 216.386719 172.757812 C 216.449219 172.90625 216.476562 172.929688 216.609375 172.929688 C 216.789062 172.929688 217.089844 172.792969 217.203125 172.664062 C 217.28125 172.582031 217.28125 172.539062 217.230469 172.203125 C 217.1875 171.90625 217.1875 171.824219 217.238281 171.769531 C 217.378906 171.597656 217.929688 171.757812 218.203125 172.046875 C 218.484375 172.34375 218.679688 173.054688 218.625 173.5625 C 218.605469 173.703125 218.542969 174.0625 218.480469 174.363281 C 218.386719 174.777344 218.359375 175.050781 218.355469 175.503906 C 218.351562 176.214844 218.429688 176.460938 218.78125 176.863281 C 218.902344 177.003906 219.03125 177.195312 219.058594 177.289062 C 219.089844 177.386719 219.128906 177.480469 219.144531 177.507812 C 219.160156 177.53125 219.234375 177.710938 219.304688 177.898438 C 219.371094 178.082031 219.464844 178.328125 219.511719 178.445312 C 219.621094 178.699219 220.140625 180.070312 220.386719 180.746094 C 220.484375 181.019531 220.601562 181.328125 220.636719 181.429688 C 220.730469 181.683594 220.777344 181.730469 220.917969 181.695312 C 221.089844 181.652344 221.484375 181.394531 221.601562 181.242188 C 221.816406 180.972656 221.902344 180.582031 221.777344 180.457031 C 221.746094 180.425781 221.660156 180.402344 221.578125 180.402344 C 221.375 180.402344 221.285156 180.363281 221.285156 180.261719 C 221.285156 180.132812 221.449219 180.058594 221.84375 179.992188 C 222.25 179.925781 222.542969 179.960938 222.835938 180.105469 C 223.089844 180.234375 223.167969 180.320312 223.296875 180.609375 C 223.5 181.058594 223.40625 181.707031 223.085938 182.164062 C 223 182.285156 222.925781 182.398438 222.925781 182.417969 C 222.925781 182.527344 223.089844 182.410156 223.441406 182.050781 C 223.765625 181.714844 223.835938 181.621094 223.835938 181.503906 C 223.835938 181.425781 223.8125 181.324219 223.785156 181.277344 C 223.746094 181.210938 223.75 181.167969 223.808594 181.074219 C 223.960938 180.839844 224.394531 180.804688 224.710938 180.996094 C 224.886719 181.105469 225.097656 181.410156 225.136719 181.621094 C 225.210938 182 225.023438 182.570312 224.746094 182.824219 C 224.609375 182.953125 224.613281 183 224.75 183 C 224.894531 183 225.070312 183.105469 225.136719 183.234375 C 225.222656 183.402344 225.21875 183.871094 225.128906 184.085938 C 225.085938 184.191406 224.8125 184.496094 224.410156 184.894531 C 223.726562 185.558594 223.425781 185.921875 223.234375 186.304688 C 223.117188 186.539062 222.863281 187.253906 222.8125 187.476562 L 222.789062 187.605469 L 193.984375 187.605469 L 193.988281 187.433594 C 193.992188 187.339844 193.96875 185.195312 193.941406 182.660156 C 193.886719 177.617188 193.820312 169.117188 193.753906 159.777344 C 193.710938 153.414062 193.644531 145.335938 193.574219 136.417969 C 193.546875 133.445312 193.515625 128.890625 193.5 126.296875 C 193.488281 123.703125 193.460938 121.515625 193.4375 121.441406 C 193.390625 121.246094 193.453125 121.101562 193.585938 121.101562 C 193.664062 121.101562 193.820312 121.234375 194.144531 121.585938 Z M 194.144531 121.585938 " fill-opacity="1" fill-rule="nonzero"/></g><g fill="#435dbe" fill-opacity="1"><g transform="translate(128.699995, 211.692526)"><g><path d="M 15.5 -10.84375 C 16.1875 -10.300781 16.691406 -9.601562 17.015625 -8.75 C 17.347656 -7.894531 17.441406 -6.953125 17.296875 -5.921875 C 17.160156 -5.097656 16.878906 -4.328125 16.453125 -3.609375 C 16.023438 -2.890625 15.492188 -2.257812 14.859375 -1.71875 C 14.234375 -1.1875 13.535156 -0.765625 12.765625 -0.453125 C 12.003906 -0.148438 11.210938 0 10.390625 0 L 1.34375 0 L 4.5 -19.90625 L 13.25 -19.90625 C 14 -19.90625 14.679688 -19.757812 15.296875 -19.46875 C 15.921875 -19.175781 16.429688 -18.785156 16.828125 -18.296875 C 17.234375 -17.816406 17.523438 -17.25 17.703125 -16.59375 C 17.878906 -15.9375 17.910156 -15.234375 17.796875 -14.484375 C 17.671875 -13.679688 17.40625 -12.972656 17 -12.359375 C 16.59375 -11.753906 16.09375 -11.25 15.5 -10.84375 Z M 7.578125 -12.4375 L 12.078125 -12.4375 C 12.578125 -12.4375 13.023438 -12.613281 13.421875 -12.96875 C 13.828125 -13.320312 14.078125 -13.753906 14.171875 -14.265625 C 14.265625 -14.765625 14.15625 -15.179688 13.84375 -15.515625 C 13.539062 -15.859375 13.140625 -16.03125 12.640625 -16.03125 L 8.140625 -16.03125 Z M 10.984375 -3.84375 C 11.265625 -3.84375 11.539062 -3.90625 11.8125 -4.03125 C 12.082031 -4.164062 12.320312 -4.34375 12.53125 -4.5625 C 12.75 -4.78125 12.929688 -5.03125 13.078125 -5.3125 C 13.234375 -5.601562 13.335938 -5.910156 13.390625 -6.234375 C 13.484375 -6.890625 13.367188 -7.441406 13.046875 -7.890625 C 12.734375 -8.335938 12.296875 -8.5625 11.734375 -8.5625 L 6.96875 -8.5625 L 6.203125 -3.84375 Z M 10.984375 -3.84375 "/></g></g></g><g fill="#435dbe" fill-opacity="1"><g transform="translate(146.073133, 211.692526)"><g><path d="M 6.171875 -3.84375 L 14.34375 -3.84375 L 13.765625 0 L 1.3125 0 L 4.46875 -19.90625 L 8.734375 -19.90625 Z M 6.171875 -3.84375 "/></g></g></g><g fill="#435dbe" fill-opacity="1"><g transform="translate(160.106358, 211.692526)"><g><path d="M 11.703125 -19.90625 L 11.140625 -16.3125 L 9.65625 -16.3125 L 7.640625 -3.5625 L 9.125 -3.5625 L 8.5625 0 L 1.3125 0 L 1.875 -3.5625 L 3.375 -3.5625 L 5.390625 -16.3125 L 3.90625 -16.3125 L 4.46875 -19.90625 Z M 11.703125 -19.90625 "/></g></g></g><g fill="#000000" fill-opacity="1"><g transform="translate(169.949992, 211.692526)"><g><path d="M 3.796875 -19.90625 L 18.1875 -19.90625 L 17.578125 -16.03125 L 12.5 -16.03125 L 9.96875 0 L 5.734375 0 L 8.25 -16.03125 L 3.171875 -16.03125 Z M 3.796875 -19.90625 "/></g></g></g><g fill="#000000" fill-opacity="1"><g transform="translate(185.639143, 211.692526)"><g><path d="M 11.703125 -19.90625 L 11.140625 -16.3125 L 9.65625 -16.3125 L 7.640625 -3.5625 L 9.125 -3.5625 L 8.5625 0 L 1.3125 0 L 1.875 -3.5625 L 3.375 -3.5625 L 5.390625 -16.3125 L 3.90625 -16.3125 L 4.46875 -19.90625 Z M 11.703125 -19.90625 "/></g></g></g><g fill="#000000" fill-opacity="1"><g transform="translate(195.490468, 211.692526)"><g><path d="M 11.6875 -10.8125 L 19.59375 0 L 14.34375 0 L 8.5625 -8.109375 L 6.5625 -6.375 L 5.59375 0 L 1.3125 0 L 4.46875 -19.90625 L 8.734375 -19.90625 L 7.4375 -11.84375 L 16.734375 -19.90625 L 22.1875 -19.90625 Z M 11.6875 -10.8125 "/></g></g></g><g fill="#000000" fill-opacity="1"><g transform="translate(215.473785, 211.692526)"><g><path d="M 4.5 -19.90625 L 16.9375 -19.90625 L 16.3125 -16.03125 L 8.140625 -16.03125 L 7.578125 -12.4375 L 14.765625 -12.4375 L 14.15625 -8.5625 L 6.96875 -8.5625 L 6.203125 -3.84375 L 14.375 -3.84375 L 13.78125 0 L 1.34375 0 Z M 4.5 -19.90625 "/></g></g></g><g fill="#000000" fill-opacity="1"><g transform="translate(230.601603, 211.692526)"><g><path d="M 3.796875 -19.90625 L 18.1875 -19.90625 L 17.578125 -16.03125 L 12.5 -16.03125 L 9.96875 0 L 5.734375 0 L 8.25 -16.03125 L 3.171875 -16.03125 Z M 3.796875 -19.90625 "/></g></g></g></svg>